<?xml version="1.0" encoding="UTF-8" ?>
<!DOCTYPE svg PUBLIC "-//W3C//DTD SVG 1.1//EN" "http://www.w3.org/Graphics/SVG/1.1/DTD/svg11.dtd">
<svg width="894pt" height="894pt" viewBox="0 0 894 894" version="1.1" xmlns="http://www.w3.org/2000/svg">
<g id="#000000ff">
</g>
<g id="#b23620ff">
<path fill="#b23620" opacity="1.00" d=" M 331.41 64.45 C 369.77 52.88 409.91 46.86 450.00 47.51 C 488.21 47.31 526.23 53.85 562.83 64.55 C 557.01 85.08 549.23 105.04 543.61 125.64 L 543.11 125.44 C 533.32 121.67 522.96 119.65 512.73 117.43 C 493.09 113.27 473.03 111.59 453.00 110.77 C 403.78 110.11 354.37 120.20 309.55 140.64 C 242.40 171.09 185.89 224.34 151.48 289.54 C 108.59 369.72 100.96 467.63 130.11 553.68 C 151.28 617.51 192.68 674.23 246.29 714.71 C 273.51 735.26 303.82 751.80 336.03 763.04 C 330.18 781.71 323.93 800.26 318.01 818.91 C 317.44 820.66 316.71 822.36 315.96 824.06 C 246.98 800.75 185.02 757.41 138.77 701.23 C 94.78 647.91 64.86 583.04 53.12 514.91 C 51.25 502.00 48.91 489.14 48.45 476.08 C 46.85 463.11 47.42 450.02 47.36 436.99 C 47.18 426.93 48.69 416.97 49.23 406.94 C 51.51 386.81 54.76 366.73 60.00 347.13 C 77.16 280.42 111.76 218.22 159.88 168.88 C 206.94 120.24 266.62 83.98 331.41 64.45 Z" />
<path fill="#b23620" opacity="1.00" d=" M 333.38 219.31 C 366.03 202.67 402.38 193.49 438.97 192.09 C 447.31 191.26 455.66 192.23 464.00 192.57 C 476.11 193.33 488.11 195.27 499.97 197.76 C 506.16 199.07 512.20 201.03 518.44 202.12 C 510.14 226.84 502.53 251.80 494.04 276.45 C 479.94 273.07 465.59 270.03 451.01 270.27 C 397.87 268.48 344.87 293.23 311.40 334.40 C 292.29 357.51 279.36 385.60 274.12 415.12 C 266.54 457.76 274.95 503.16 298.14 539.84 C 318.32 572.38 349.36 597.94 385.18 611.49 C 379.43 630.71 372.79 649.66 366.76 668.79 C 364.86 674.65 363.06 680.55 360.89 686.32 C 326.10 673.62 294.11 653.28 267.98 627.02 C 242.30 601.48 222.26 570.33 209.52 536.43 C 189.85 484.57 187.87 426.17 204.12 373.12 C 214.23 339.73 231.24 308.46 253.89 281.91 C 275.88 256.05 303.03 234.55 333.38 219.31 Z" />
</g>
<g id="#c5dee8ff">
<path fill="#c5dee8" opacity="1.00" d=" M 578.22 69.98 C 585.45 71.82 592.28 74.91 599.18 77.67 C 670.26 106.64 732.38 156.96 775.71 220.29 C 818.37 282.04 843.05 356.01 846.00 431.01 C 848.87 501.08 832.59 571.80 799.80 633.79 C 771.95 686.75 731.83 733.17 683.57 768.53 C 625.02 811.69 554.50 838.50 482.02 844.81 C 447.02 848.15 411.61 846.28 376.99 840.24 C 361.64 837.36 346.33 834.02 331.47 829.15 C 333.39 823.19 335.18 817.20 337.33 811.32 C 339.99 814.86 344.63 815.28 348.59 816.41 C 364.84 820.62 381.34 823.93 398.00 826.01 C 403.55 826.88 409.11 827.90 414.76 827.80 C 415.18 804.53 414.43 781.27 414.68 758.00 C 414.64 717.12 414.74 676.24 414.64 635.37 C 408.32 634.41 402.06 633.10 395.84 631.63 C 397.21 626.06 399.05 620.62 401.09 615.26 C 405.77 617.98 411.21 618.54 416.42 619.57 C 455.55 626.67 497.16 620.30 531.99 600.95 C 558.28 586.46 580.76 565.15 596.83 539.82 C 615.52 510.32 624.85 475.11 623.59 440.25 C 622.82 421.76 619.40 403.37 612.99 386.00 C 610.04 377.84 606.03 370.13 602.75 362.11 C 596.45 350.03 588.25 338.99 579.18 328.85 C 571.01 321.68 563.61 313.65 554.88 307.13 C 544.04 298.49 531.81 291.91 519.71 285.27 C 516.47 283.62 513.00 282.54 509.54 281.47 C 510.80 276.67 512.42 271.97 514.11 267.31 C 516.40 269.45 519.22 270.84 522.14 271.91 C 525.87 273.29 529.14 275.67 532.91 276.95 C 534.44 276.21 535.40 274.72 536.42 273.43 C 559.01 241.14 582.51 209.51 605.35 177.39 C 616.13 162.19 627.09 147.14 637.93 131.98 C 640.59 127.97 644.11 124.42 645.91 119.89 C 646.27 117.89 643.93 117.28 642.68 116.30 C 620.69 103.69 597.80 92.32 573.63 84.52 C 574.76 79.56 576.41 74.73 578.22 69.98 M 692.61 163.59 C 679.82 181.77 666.70 199.70 653.79 217.79 C 632.92 246.63 612.43 275.74 591.54 304.56 C 589.13 307.90 586.32 311.01 584.70 314.85 C 592.89 324.25 601.01 333.78 607.62 344.39 C 611.00 349.16 613.08 354.76 616.75 359.31 C 617.08 359.51 617.75 359.92 618.08 360.12 C 624.63 358.84 630.74 355.97 637.12 354.09 C 649.71 349.54 662.46 345.49 675.13 341.16 C 715.88 327.71 756.43 313.64 797.16 300.12 C 798.87 299.71 800.51 298.49 799.39 296.61 C 785.04 262.25 765.18 230.24 741.37 201.62 C 729.81 187.59 716.68 174.98 703.70 162.29 C 701.71 160.64 699.80 158.37 697.14 158.00 C 695.32 159.60 693.98 161.63 692.61 163.59 M 812.61 361.58 C 784.53 371.32 756.33 380.71 728.13 390.13 C 697.43 400.41 666.99 411.44 636.16 421.37 C 635.57 426.59 636.78 431.77 636.96 436.97 C 637.34 447.32 637.26 457.71 635.98 467.99 C 636.10 469.54 635.07 472.21 637.09 472.87 C 658.72 480.17 680.44 487.25 701.90 495.01 C 734.53 506.13 767.31 516.81 799.90 528.06 C 806.58 530.09 812.98 533.10 819.91 534.24 C 822.68 524.33 824.22 514.11 825.91 503.97 C 833.10 456.19 831.02 407.17 820.63 360.01 C 817.85 359.84 815.18 360.64 812.61 361.58 M 613.51 539.55 C 605.86 554.06 595.53 566.91 584.70 579.15 C 585.89 581.84 587.56 584.29 589.41 586.59 C 600.20 601.19 610.63 616.04 621.22 630.79 C 643.26 661.73 665.57 692.47 687.64 723.38 C 690.73 727.60 693.45 732.12 697.15 735.87 C 705.89 729.12 713.45 721.02 721.28 713.28 C 729.87 704.83 737.70 695.64 745.33 686.32 C 766.59 659.70 784.68 630.46 798.16 599.16 C 798.49 597.79 799.87 595.81 798.29 594.76 C 794.47 592.47 790.01 591.65 785.88 590.11 C 740.96 575.05 696.14 559.65 651.14 544.85 C 640.74 541.12 630.31 537.46 619.77 534.17 C 616.35 532.92 615.01 537.37 613.51 539.55 M 525.16 621.15 C 510.83 627.33 495.89 632.58 480.33 634.45 C 478.64 634.49 479.14 636.83 478.89 637.94 C 478.87 688.29 478.88 738.65 478.89 789.00 C 478.71 801.97 478.29 814.97 478.92 827.93 C 489.45 827.77 499.87 825.94 510.25 824.33 C 547.29 818.32 583.38 806.65 617.00 790.01 C 626.66 785.00 636.58 780.30 645.45 773.95 C 641.84 767.04 636.55 761.21 632.28 754.72 C 620.79 739.16 609.79 723.25 598.43 707.59 C 577.49 678.22 555.94 649.29 535.31 619.70 C 534.57 618.79 533.88 617.76 532.83 617.21 C 530.04 617.96 527.85 620.10 525.16 621.15 Z" />
<path fill="#c5dee8" opacity="1.00" d=" M 563.20 116.14 C 569.42 119.03 575.98 121.06 582.26 123.79 C 592.83 128.30 603.21 133.25 613.35 138.63 C 616.32 140.26 619.62 141.54 621.95 144.09 C 620.49 148.29 617.35 151.56 614.67 154.99 C 608.29 152.40 602.58 148.50 596.32 145.68 C 584.50 140.09 572.50 134.77 560.07 130.69 C 559.28 131.41 558.52 132.15 557.77 132.90 C 559.39 127.26 561.12 121.63 563.20 116.14 Z" />
<path fill="#c5dee8" opacity="1.00" d=" M 681.22 186.02 C 683.45 187.29 685.50 188.86 687.28 190.73 C 695.38 198.95 703.90 206.80 711.33 215.67 C 732.05 239.18 749.58 265.50 763.34 293.66 C 765.11 297.34 767.21 300.96 768.14 304.98 C 765.14 308.80 759.40 309.08 754.98 310.41 C 753.46 308.04 752.13 305.57 750.98 303.01 C 736.68 272.98 717.77 245.19 695.28 220.71 C 687.87 213.00 679.99 205.75 672.72 197.92 C 674.87 193.51 677.85 189.58 681.22 186.02 Z" />
<path fill="#c5dee8" opacity="1.00" d=" M 519.38 251.55 C 523.69 235.92 529.42 220.70 534.07 205.17 C 536.30 209.37 541.45 209.79 545.35 211.65 C 552.63 214.89 560.20 217.66 566.87 222.11 C 562.76 228.80 557.80 234.91 553.37 241.38 C 548.80 247.54 544.71 254.07 539.79 259.97 C 532.90 257.39 526.32 254.03 519.38 251.55 Z" />
<path fill="#c5dee8" opacity="1.00" d=" M 625.20 264.01 C 630.78 266.81 633.62 272.77 638.27 276.72 C 650.95 290.72 661.94 306.26 671.25 322.70 C 673.63 327.28 676.37 331.73 677.94 336.69 C 662.70 342.08 647.36 347.17 631.97 352.10 C 626.35 343.63 621.82 334.45 615.71 326.28 C 610.07 318.33 603.64 311.00 597.23 303.68 C 598.25 301.34 599.53 299.13 601.08 297.11 C 609.18 286.12 616.78 274.75 625.20 264.01 Z" />
<path fill="#c5dee8" opacity="1.00" d=" M 512.95 314.97 C 514.16 313.47 515.66 311.41 517.90 312.00 C 521.20 313.06 523.80 315.49 526.58 317.47 C 534.63 323.41 542.72 329.30 550.89 335.08 C 552.39 336.27 554.43 337.68 554.00 339.91 C 552.89 343.70 549.96 346.59 547.78 349.80 C 543.99 355.30 539.54 360.36 536.04 366.05 C 533.85 369.04 537.27 371.83 538.83 374.17 C 542.68 378.40 544.91 383.99 549.36 387.65 C 551.42 387.69 553.42 387.05 555.39 386.45 C 563.18 383.82 570.96 381.08 578.86 378.79 C 580.44 378.57 582.62 377.55 583.75 379.22 C 585.11 381.11 585.73 383.40 586.47 385.58 C 589.77 396.49 593.67 407.22 596.94 418.14 C 597.66 420.27 598.08 423.42 595.29 424.20 C 585.96 427.95 576.01 430.00 566.68 433.74 C 563.59 434.71 564.21 438.45 564.12 440.97 C 564.47 446.53 563.77 452.13 564.37 457.67 C 564.59 459.89 567.15 460.39 568.84 461.16 C 576.40 463.67 584.03 465.97 591.64 468.35 C 593.51 469.04 595.56 469.61 597.06 471.02 C 598.06 472.76 597.10 474.83 596.74 476.62 C 593.28 487.77 589.41 498.78 585.98 509.93 C 585.17 511.97 584.63 514.45 582.65 515.70 C 580.83 515.74 579.05 515.28 577.32 514.80 C 569.45 512.37 561.68 509.63 553.86 507.08 C 552.04 506.76 549.68 505.52 548.21 507.20 C 544.67 510.78 542.56 515.47 539.27 519.27 C 537.83 521.38 535.59 523.29 535.25 525.91 C 536.91 530.70 540.77 534.29 543.56 538.43 C 546.80 543.18 550.70 547.50 553.48 552.55 C 554.88 554.77 553.44 557.27 551.44 558.48 C 541.94 565.31 532.43 572.13 523.07 579.14 C 521.02 580.44 518.84 582.47 516.23 581.95 C 513.96 580.99 512.73 578.60 511.26 576.75 C 507.05 570.66 502.56 564.76 498.33 558.68 C 496.99 557.09 495.58 554.49 493.11 555.17 C 487.93 556.30 483.14 558.76 477.96 559.91 C 475.52 560.76 471.79 561.15 471.43 564.35 C 470.32 574.80 471.83 585.39 470.83 595.85 C 470.59 598.72 467.20 598.68 465.06 598.73 C 453.02 598.62 440.97 598.62 428.93 598.72 C 426.78 598.67 423.41 598.72 423.17 595.85 C 422.23 585.65 423.51 575.36 422.71 565.15 C 422.77 562.78 420.46 561.72 418.88 560.46 C 419.62 557.31 420.71 554.26 421.71 551.18 L 422.24 551.38 C 428.47 554.00 435.31 554.27 441.97 554.71 C 462.15 555.72 482.76 551.45 500.37 541.40 C 514.91 532.82 527.97 521.42 537.24 507.23 C 546.85 493.57 552.32 477.33 554.70 460.90 C 557.48 442.23 554.28 423.03 547.40 405.57 C 536.61 379.13 514.62 357.72 488.35 346.75 C 488.92 343.83 489.87 341.00 491.14 338.32 C 493.20 338.61 495.80 339.26 497.01 336.99 C 502.44 329.74 507.61 322.29 512.95 314.97 Z" />
<path fill="#c5dee8" opacity="1.00" d=" M 777.08 378.17 C 781.35 376.15 785.85 374.46 790.60 374.03 C 800.71 421.99 800.70 472.01 790.60 519.97 C 785.86 519.53 781.35 517.86 777.09 515.82 C 781.48 493.16 784.26 470.11 784.05 447.00 C 784.26 423.88 781.49 400.83 777.08 378.17 Z" />
<path fill="#c5dee8" opacity="1.00" d=" M 693.25 406.21 C 695.29 405.37 697.45 404.94 699.66 404.88 C 704.23 432.72 704.22 461.28 699.66 489.12 C 697.46 489.05 695.29 488.62 693.26 487.79 C 679.95 482.86 666.23 479.06 653.03 473.87 C 654.02 461.82 655.45 449.71 654.47 437.61 C 654.12 431.77 653.63 425.95 653.05 420.14 C 666.23 414.92 679.96 411.14 693.25 406.21 Z" />
<path fill="#c5dee8" opacity="1.00" d=" M 631.37 542.30 C 633.16 541.85 634.94 542.85 636.65 543.28 C 650.37 548.08 664.28 552.32 677.93 557.32 C 674.30 567.18 668.47 576.07 663.01 585.00 C 654.41 597.82 645.27 610.39 634.35 621.34 C 631.51 624.44 629.16 628.20 625.20 629.99 C 616.34 618.68 608.38 606.70 599.83 595.16 C 598.75 593.58 597.41 592.05 597.06 590.13 C 601.58 584.03 607.21 578.80 611.60 572.58 C 617.40 565.18 622.50 557.26 627.11 549.06 C 628.43 546.75 629.56 544.28 631.37 542.30 Z" />
<path fill="#c5dee8" opacity="1.00" d=" M 748.71 595.69 C 750.76 591.63 752.46 587.39 754.98 583.59 C 759.20 584.53 763.54 585.52 767.30 587.76 C 767.50 588.07 767.91 588.71 768.11 589.03 C 767.08 593.53 764.64 597.53 762.68 601.67 C 747.50 632.55 727.61 661.03 704.25 686.25 C 698.32 692.32 692.28 698.29 686.26 704.27 C 684.77 705.75 683.01 706.91 681.22 707.98 C 677.86 704.42 674.87 700.49 672.72 696.09 C 682.19 685.79 692.91 676.66 701.86 665.87 C 720.40 644.62 736.12 620.92 748.71 595.69 Z" />
<path fill="#c5dee8" opacity="1.00" d=" M 525.29 639.24 C 530.18 637.34 534.78 634.79 539.74 633.05 C 547.46 643.44 554.72 654.16 562.42 664.56 C 563.87 667.08 567.17 669.36 566.60 672.51 C 561.52 675.71 555.90 677.96 550.45 680.46 C 531.22 688.91 510.93 694.85 490.24 698.38 C 487.86 698.77 485.46 698.93 483.06 699.08 C 482.67 685.05 483.05 671.01 482.86 656.98 C 483.03 655.21 482.59 653.16 483.66 651.64 C 485.18 651.04 486.79 650.73 488.39 650.40 C 501.03 647.98 513.39 644.12 525.29 639.24 Z" />
<path fill="#c5dee8" opacity="1.00" d=" M 391.02 646.16 C 397.67 648.63 404.72 649.59 411.53 651.47 C 412.29 659.30 411.73 667.16 411.88 675.01 C 411.73 683.25 412.26 691.52 411.56 699.75 C 399.38 699.15 387.63 695.46 375.80 692.77 C 380.72 677.18 385.74 661.62 391.02 646.16 Z" />
<path fill="#c5dee8" opacity="1.00" d=" M 610.53 740.49 C 611.87 739.80 613.26 739.03 614.81 738.99 C 618.21 742.05 620.39 746.19 622.90 749.97 C 609.97 758.34 595.82 764.64 581.70 770.71 C 560.38 779.46 538.24 786.25 515.61 790.63 C 504.90 792.57 494.14 794.94 483.22 794.99 C 483.14 790.70 482.85 786.40 483.24 782.13 C 483.05 780.47 484.86 780.27 486.04 780.09 C 529.61 775.33 572.21 761.76 610.53 740.49 Z" />
<path fill="#c5dee8" opacity="1.00" d=" M 351.18 768.64 C 357.81 769.78 364.23 771.83 370.80 773.24 C 384.01 776.40 397.49 778.02 410.88 780.15 C 411.59 785.38 411.56 790.67 410.91 795.91 C 389.04 794.34 367.62 789.15 346.48 783.60 C 347.66 778.50 349.38 773.54 351.18 768.64 Z" />
</g>
<g id="#ffffffff">
<path fill="#ffffff" opacity="1.00" d=" M 573.63 84.52 C 597.80 92.32 620.69 103.69 642.68 116.30 C 643.93 117.28 646.27 117.89 645.91 119.89 C 644.11 124.42 640.59 127.97 637.93 131.98 C 627.09 147.14 616.13 162.19 605.35 177.39 C 582.51 209.51 559.01 241.14 536.42 273.43 C 535.40 274.72 534.44 276.21 532.91 276.95 C 529.14 275.67 525.87 273.29 522.14 271.91 C 519.22 270.84 516.40 269.45 514.11 267.31 C 516.01 262.10 517.54 256.77 519.38 251.55 C 526.32 254.03 532.90 257.39 539.79 259.97 C 544.71 254.07 548.80 247.54 553.37 241.38 C 557.80 234.91 562.76 228.80 566.87 222.11 C 560.20 217.66 552.63 214.89 545.35 211.65 C 541.45 209.79 536.30 209.37 534.07 205.17 C 542.25 181.18 549.66 156.91 557.77 132.90 C 558.52 132.15 559.28 131.41 560.07 130.69 C 572.50 134.77 584.50 140.09 596.32 145.68 C 602.58 148.50 608.29 152.40 614.67 154.99 C 617.35 151.56 620.49 148.29 621.95 144.09 C 619.62 141.54 616.32 140.26 613.35 138.63 C 603.21 133.25 592.83 128.30 582.26 123.79 C 575.98 121.06 569.42 119.03 563.20 116.14 C 566.94 105.69 570.03 95.02 573.63 84.52 Z" />
<path fill="#ffffff" opacity="1.00" d=" M 430.61 321.60 C 436.32 305.02 441.21 288.18 447.00 271.62 C 453.84 291.72 460.09 312.01 466.77 332.15 C 468.38 337.39 470.59 342.52 471.12 348.02 C 450.57 410.25 430.60 472.66 410.22 534.95 C 409.09 537.92 408.70 541.29 406.94 543.96 C 390.73 555.34 374.90 567.26 358.79 578.78 C 353.89 582.18 349.37 586.15 344.10 589.00 C 349.25 570.81 355.75 553.04 361.25 534.96 C 366.58 518.70 372.06 502.49 377.15 486.15 C 379.15 480.14 381.41 474.20 382.70 467.98 C 370.73 458.65 358.17 450.09 345.97 441.05 C 328.24 428.10 310.43 415.26 292.69 402.31 C 288.60 399.31 284.24 396.62 280.68 392.97 C 294.77 392.34 308.90 392.86 323.00 392.69 C 351.21 392.63 379.41 392.82 407.61 392.60 C 415.20 368.91 423.11 345.33 430.61 321.60 Z" />
<path fill="#ffffff" opacity="1.00" d=" M 509.54 281.47 C 513.00 282.54 516.47 283.62 519.71 285.27 C 531.81 291.91 544.04 298.49 554.88 307.13 C 563.61 313.65 571.01 321.68 579.18 328.85 C 588.25 338.99 596.45 350.03 602.75 362.11 C 606.03 370.13 610.04 377.84 612.99 386.00 C 619.40 403.37 622.82 421.76 623.59 440.25 C 624.85 475.11 615.52 510.32 596.83 539.82 C 580.76 565.15 558.28 586.46 531.99 600.95 C 497.16 620.30 455.55 626.67 416.42 619.57 C 411.21 618.54 405.77 617.98 401.09 615.26 C 407.07 597.01 412.97 578.74 418.88 560.46 C 420.46 561.72 422.77 562.78 422.71 565.15 C 423.51 575.36 422.23 585.65 423.17 595.85 C 423.41 598.72 426.78 598.67 428.93 598.72 C 440.97 598.62 453.02 598.62 465.06 598.73 C 467.20 598.68 470.59 598.72 470.83 595.85 C 471.83 585.39 470.32 574.80 471.43 564.35 C 471.79 561.15 475.52 560.76 477.96 559.91 C 483.14 558.76 487.93 556.30 493.11 555.17 C 495.58 554.49 496.99 557.09 498.33 558.68 C 502.56 564.76 507.05 570.66 511.26 576.75 C 512.73 578.60 513.96 580.99 516.23 581.95 C 518.84 582.47 521.02 580.44 523.07 579.14 C 532.43 572.13 541.94 565.31 551.44 558.48 C 553.44 557.27 554.88 554.77 553.48 552.55 C 550.70 547.50 546.80 543.18 543.56 538.43 C 540.77 534.29 536.91 530.70 535.25 525.91 C 535.59 523.29 537.83 521.38 539.27 519.27 C 542.56 515.47 544.67 510.78 548.21 507.20 C 549.68 505.52 552.04 506.76 553.86 507.08 C 561.68 509.63 569.45 512.37 577.32 514.80 C 579.05 515.28 580.83 515.74 582.65 515.70 C 584.63 514.45 585.17 511.97 585.98 509.93 C 589.41 498.78 593.28 487.77 596.74 476.62 C 597.10 474.83 598.06 472.76 597.06 471.02 C 595.56 469.61 593.51 469.04 591.64 468.35 C 584.03 465.97 576.40 463.67 568.84 461.16 C 567.15 460.39 564.59 459.89 564.37 457.67 C 563.77 452.13 564.47 446.53 564.12 440.97 C 564.21 438.45 563.59 434.71 566.68 433.74 C 576.01 430.00 585.96 427.95 595.29 424.20 C 598.08 423.42 597.66 420.27 596.94 418.14 C 593.67 407.22 589.77 396.49 586.47 385.58 C 585.73 383.40 585.11 381.11 583.75 379.22 C 582.62 377.55 580.44 378.57 578.86 378.79 C 570.96 381.08 563.18 383.82 555.39 386.45 C 553.42 387.05 551.42 387.69 549.36 387.65 C 544.91 383.99 542.68 378.40 538.83 374.17 C 537.27 371.83 533.85 369.04 536.04 366.05 C 539.54 360.36 543.99 355.30 547.78 349.80 C 549.96 346.59 552.89 343.70 554.00 339.91 C 554.43 337.68 552.39 336.27 550.89 335.08 C 542.72 329.30 534.63 323.41 526.58 317.47 C 523.80 315.49 521.20 313.06 517.90 312.00 C 515.66 311.41 514.16 313.47 512.95 314.97 C 507.61 322.29 502.44 329.74 497.01 336.99 C 495.80 339.26 493.20 338.61 491.14 338.32 C 497.18 319.34 503.48 300.44 509.54 281.47 Z" />
<path fill="#ffffff" opacity="1.00" d=" M 812.61 361.58 C 815.18 360.64 817.85 359.84 820.63 360.01 C 831.02 407.17 833.10 456.19 825.91 503.97 C 824.22 514.11 822.68 524.33 819.91 534.24 C 812.98 533.10 806.58 530.09 799.90 528.06 C 767.31 516.81 734.53 506.13 701.90 495.01 C 680.44 487.25 658.72 480.17 637.09 472.87 C 635.07 472.21 636.10 469.54 635.98 467.99 C 637.26 457.71 637.34 447.32 636.96 436.97 C 636.78 431.77 635.57 426.59 636.16 421.37 C 666.99 411.44 697.43 400.41 728.13 390.13 C 756.33 380.71 784.53 371.32 812.61 361.58 M 777.08 378.17 C 781.49 400.83 784.26 423.88 784.05 447.00 C 784.26 470.11 781.48 493.16 777.09 515.82 C 781.35 517.86 785.86 519.53 790.60 519.97 C 800.70 472.01 800.71 421.99 790.60 374.03 C 785.85 374.46 781.35 376.15 777.08 378.17 M 693.25 406.21 C 679.96 411.14 666.23 414.92 653.05 420.14 C 653.63 425.95 654.12 431.77 654.47 437.61 C 655.45 449.71 654.02 461.82 653.03 473.87 C 666.23 479.06 679.95 482.86 693.26 487.79 C 695.29 488.62 697.46 489.05 699.66 489.12 C 704.22 461.28 704.23 432.72 699.66 404.88 C 697.45 404.94 695.29 405.37 693.25 406.21 Z" />
<path fill="#ffffff" opacity="1.00" d=" M 483.56 361.56 C 501.30 368.42 516.28 381.65 526.34 397.68 C 543.27 424.47 544.90 460.17 530.48 488.38 C 522.90 504.18 510.35 517.37 495.41 526.43 C 480.93 535.26 463.92 539.61 447.01 539.74 C 440.03 539.69 433.14 538.36 426.21 537.70 C 445.26 478.97 464.13 420.16 483.56 361.56 Z" />
<path fill="#ffffff" opacity="1.00" d=" M 525.16 621.15 C 527.85 620.10 530.04 617.96 532.83 617.21 C 533.88 617.76 534.57 618.79 535.31 619.70 C 555.94 649.29 577.49 678.22 598.43 707.59 C 609.79 723.25 620.79 739.16 632.28 754.72 C 636.55 761.21 641.84 767.04 645.45 773.95 C 636.58 780.30 626.66 785.00 617.00 790.01 C 583.38 806.65 547.29 818.32 510.25 824.33 C 499.87 825.94 489.45 827.77 478.92 827.93 C 478.29 814.97 478.71 801.97 478.89 789.00 C 478.88 738.65 478.87 688.29 478.89 637.94 C 479.14 636.83 478.64 634.49 480.33 634.45 C 495.89 632.58 510.83 627.33 525.16 621.15 M 525.29 639.24 C 513.39 644.12 501.03 647.98 488.39 650.40 C 486.79 650.73 485.18 651.04 483.66 651.64 C 482.59 653.16 483.03 655.21 482.86 656.98 C 483.05 671.01 482.67 685.05 483.06 699.08 C 485.46 698.93 487.86 698.77 490.24 698.38 C 510.93 694.85 531.22 688.91 550.45 680.46 C 555.90 677.96 561.52 675.71 566.60 672.51 C 567.17 669.36 563.87 667.08 562.42 664.56 C 554.72 654.16 547.46 643.44 539.74 633.05 C 534.78 634.79 530.18 637.34 525.29 639.24 M 610.53 740.49 C 572.21 761.76 529.61 775.33 486.04 780.09 C 484.86 780.27 483.05 780.47 483.24 782.13 C 482.85 786.40 483.14 790.70 483.22 794.99 C 494.14 794.94 504.90 792.57 515.61 790.63 C 538.24 786.25 560.38 779.46 581.70 770.71 C 595.82 764.64 609.97 758.34 622.90 749.97 C 620.39 746.19 618.21 742.05 614.81 738.99 C 613.26 739.03 611.87 739.80 610.53 740.49 Z" />
</g>
<g id="#efefefff">
<path fill="#efefef" opacity="1.00" d=" M 309.55 140.64 C 354.37 120.20 403.78 110.11 453.00 110.77 C 473.03 111.59 493.09 113.27 512.73 117.43 C 522.96 119.65 533.32 121.67 543.11 125.44 C 535.21 151.10 526.51 176.51 518.44 202.12 C 512.20 201.03 506.16 199.07 499.97 197.76 C 488.11 195.27 476.11 193.33 464.00 192.57 C 455.66 192.23 447.31 191.26 438.97 192.09 C 402.38 193.49 366.03 202.67 333.38 219.31 C 303.03 234.55 275.88 256.05 253.89 281.91 C 231.24 308.46 214.23 339.73 204.12 373.12 C 187.87 426.17 189.85 484.57 209.52 536.43 C 222.26 570.33 242.30 601.48 267.98 627.02 C 294.11 653.28 326.10 673.62 360.89 686.32 C 352.86 711.96 344.45 737.51 336.03 763.04 C 303.82 751.80 273.51 735.26 246.29 714.71 C 192.68 674.23 151.28 617.51 130.11 553.68 C 100.96 467.63 108.59 369.72 151.48 289.54 C 185.89 224.34 242.40 171.09 309.55 140.64 Z" />
<path fill="#efefef" opacity="1.00" d=" M 692.61 163.59 C 693.98 161.63 695.32 159.60 697.14 158.00 C 699.80 158.37 701.71 160.64 703.70 162.29 C 716.68 174.98 729.81 187.59 741.37 201.62 C 765.18 230.24 785.04 262.25 799.39 296.61 C 800.51 298.49 798.87 299.71 797.16 300.12 C 756.43 313.64 715.88 327.71 675.13 341.16 C 662.46 345.49 649.71 349.54 637.12 354.09 C 630.74 355.97 624.63 358.84 618.08 360.12 C 617.75 359.92 617.08 359.51 616.75 359.31 C 613.08 354.76 611.00 349.16 607.62 344.39 C 601.01 333.78 592.89 324.25 584.70 314.85 C 586.32 311.01 589.13 307.90 591.54 304.56 C 612.43 275.74 632.92 246.63 653.79 217.79 C 666.70 199.70 679.82 181.77 692.61 163.59 M 681.22 186.02 C 677.85 189.58 674.87 193.51 672.72 197.92 C 679.99 205.75 687.87 213.00 695.28 220.71 C 717.77 245.19 736.68 272.98 750.98 303.01 C 752.13 305.57 753.46 308.04 754.98 310.41 C 759.40 309.08 765.14 308.80 768.14 304.98 C 767.21 300.96 765.11 297.34 763.34 293.66 C 749.58 265.50 732.05 239.18 711.33 215.67 C 703.90 206.80 695.38 198.95 687.28 190.73 C 685.50 188.86 683.45 187.29 681.22 186.02 M 625.20 264.01 C 616.78 274.75 609.18 286.12 601.08 297.11 C 599.53 299.13 598.25 301.34 597.23 303.68 C 603.64 311.00 610.07 318.33 615.71 326.28 C 621.82 334.45 626.35 343.63 631.97 352.10 C 647.36 347.17 662.70 342.08 677.94 336.69 C 676.37 331.73 673.63 327.28 671.25 322.70 C 661.94 306.26 650.95 290.72 638.27 276.72 C 633.62 272.77 630.78 266.81 625.20 264.01 Z" />
<path fill="#efefef" opacity="1.00" d=" M 486.59 352.05 C 487.11 350.26 487.78 348.52 488.35 346.75 C 514.62 357.72 536.61 379.13 547.40 405.57 C 554.28 423.03 557.48 442.23 554.70 460.90 C 552.32 477.33 546.85 493.57 537.24 507.23 C 527.97 521.42 514.91 532.82 500.37 541.40 C 482.76 551.45 462.15 555.72 441.97 554.71 C 435.31 554.27 428.47 554.00 422.24 551.38 C 422.48 548.73 423.45 546.26 424.36 543.80 C 459.54 552.70 498.84 539.86 522.55 512.56 C 535.05 498.05 543.44 480.02 546.16 461.04 C 551.05 428.75 538.60 394.47 514.23 372.76 C 507.75 367.03 500.62 361.96 492.78 358.25 C 490.17 356.85 486.52 355.62 486.59 352.05 Z" />
<path fill="#efefef" opacity="1.00" d=" M 613.51 539.55 C 615.01 537.37 616.35 532.92 619.77 534.17 C 630.31 537.46 640.74 541.12 651.14 544.85 C 696.14 559.65 740.96 575.05 785.88 590.11 C 790.01 591.65 794.47 592.47 798.29 594.76 C 799.87 595.81 798.49 597.79 798.16 599.16 C 784.68 630.46 766.59 659.70 745.33 686.32 C 737.70 695.64 729.87 704.83 721.28 713.28 C 713.45 721.02 705.89 729.12 697.15 735.87 C 693.45 732.12 690.73 727.60 687.64 723.38 C 665.57 692.47 643.26 661.73 621.22 630.79 C 610.63 616.04 600.20 601.19 589.41 586.59 C 587.56 584.29 585.89 581.84 584.70 579.15 C 595.53 566.91 605.86 554.06 613.51 539.55 M 631.37 542.30 C 629.56 544.28 628.43 546.75 627.11 549.06 C 622.50 557.26 617.40 565.18 611.60 572.58 C 607.21 578.80 601.58 584.03 597.06 590.13 C 597.41 592.05 598.75 593.58 599.83 595.16 C 608.38 606.70 616.34 618.68 625.20 629.99 C 629.16 628.20 631.51 624.44 634.35 621.34 C 645.27 610.39 654.41 597.82 663.01 585.00 C 668.47 576.07 674.30 567.18 677.93 557.32 C 664.28 552.32 650.37 548.08 636.65 543.28 C 634.94 542.85 633.16 541.85 631.37 542.30 M 748.71 595.69 C 736.12 620.92 720.40 644.62 701.86 665.87 C 692.91 676.66 682.19 685.79 672.72 696.09 C 674.87 700.49 677.86 704.42 681.22 707.98 C 683.01 706.91 684.77 705.75 686.26 704.27 C 692.28 698.29 698.32 692.32 704.25 686.25 C 727.61 661.03 747.50 632.55 762.68 601.67 C 764.64 597.53 767.08 593.53 768.11 589.03 C 767.91 588.71 767.50 588.07 767.30 587.76 C 763.54 585.52 759.20 584.53 754.98 583.59 C 752.46 587.39 750.76 591.63 748.71 595.69 Z" />
<path fill="#efefef" opacity="1.00" d=" M 395.84 631.63 C 402.06 633.10 408.32 634.41 414.64 635.37 C 414.74 676.24 414.64 717.12 414.68 758.00 C 414.43 781.27 415.18 804.53 414.76 827.80 C 409.11 827.90 403.55 826.88 398.00 826.01 C 381.34 823.93 364.84 820.62 348.59 816.41 C 344.63 815.28 339.99 814.86 337.33 811.32 C 340.56 802.14 343.36 792.82 346.48 783.60 C 367.62 789.15 389.04 794.34 410.91 795.91 C 411.56 790.67 411.59 785.38 410.88 780.15 C 397.49 778.02 384.01 776.40 370.80 773.24 C 364.23 771.83 357.81 769.78 351.18 768.64 C 359.24 743.30 367.52 718.03 375.80 692.77 C 387.63 695.46 399.38 699.15 411.56 699.75 C 412.26 691.52 411.73 683.25 411.88 675.01 C 411.73 667.16 412.29 659.30 411.53 651.47 C 404.72 649.59 397.67 648.63 391.02 646.16 C 392.73 641.35 394.22 636.46 395.84 631.63 Z" />
</g>
<g id="#587696ff">
<path fill="#587696" opacity="1.00" d=" M 311.40 334.40 C 344.87 293.23 397.87 268.48 451.01 270.27 C 465.59 270.03 479.94 273.07 494.04 276.45 C 486.77 300.42 478.47 324.08 471.12 348.02 C 470.59 342.52 468.38 337.39 466.77 332.15 C 460.09 312.01 453.84 291.72 447.00 271.62 C 441.21 288.18 436.32 305.02 430.61 321.60 C 423.11 345.33 415.20 368.91 407.61 392.60 C 379.41 392.82 351.21 392.63 323.00 392.69 C 308.90 392.86 294.77 392.34 280.68 392.97 C 284.24 396.62 288.60 399.31 292.69 402.31 C 310.43 415.26 328.24 428.10 345.97 441.05 C 358.17 450.09 370.73 458.65 382.70 467.98 C 381.41 474.20 379.15 480.14 377.15 486.15 C 372.06 502.49 366.58 518.70 361.25 534.96 C 355.75 553.04 349.25 570.81 344.10 589.00 C 349.37 586.15 353.89 582.18 358.79 578.78 C 374.90 567.26 390.73 555.34 406.94 543.96 C 404.04 555.55 399.70 566.73 396.18 578.14 C 392.53 589.27 389.20 600.50 385.18 611.49 C 349.36 597.94 318.32 572.38 298.14 539.84 C 274.95 503.16 266.54 457.76 274.12 415.12 C 279.36 385.60 292.29 357.51 311.40 334.40 Z" />
</g>
<g id="#c6dee8ff">
<path fill="#c6dee8" opacity="1.00" d=" M 483.56 361.56 C 484.21 358.28 485.38 355.15 486.59 352.05 C 486.52 355.62 490.17 356.85 492.78 358.25 C 500.62 361.96 507.75 367.03 514.23 372.76 C 538.60 394.47 551.05 428.75 546.16 461.04 C 543.44 480.02 535.05 498.05 522.55 512.56 C 498.84 539.86 459.54 552.70 424.36 543.80 C 424.67 541.68 425.40 539.66 426.21 537.70 C 433.14 538.36 440.03 539.69 447.01 539.74 C 463.92 539.61 480.93 535.26 495.41 526.43 C 510.35 517.37 522.90 504.18 530.48 488.38 C 544.90 460.17 543.27 424.47 526.34 397.68 C 516.28 381.65 501.30 368.42 483.56 361.56 Z" />
</g>
</svg>
